<?xml version="1.0" encoding="UTF-8" standalone="no"?>
<svg
   height="796.47705"
   width="996.47705"
   viewBox="-14.97 -24.95 107.73578 149.04077"
   version="1.1"
   id="svg2"
   sodipodi:docname="HP.svg"
   inkscape:version="1.4.2 (ebf0e94, 2025-05-08)"
   xmlns:inkscape="http://www.inkscape.org/namespaces/inkscape"
   xmlns:sodipodi="http://sodipodi.sourceforge.net/DTD/sodipodi-0.dtd"
   xmlns="http://www.w3.org/2000/svg"
   xmlns:svg="http://www.w3.org/2000/svg">
  <defs
     id="defs2" />
  <sodipodi:namedview
     id="namedview2"
     pagecolor="#ffffff"
     bordercolor="#000000"
     borderopacity="0.25"
     inkscape:showpageshadow="2"
     inkscape:pageopacity="0.0"
     inkscape:pagecheckerboard="0"
     inkscape:deskcolor="#d1d1d1"
     inkscape:zoom="0.26649087"
     inkscape:cx="197.00487"
     inkscape:cy="332.09393"
     inkscape:window-width="1600"
     inkscape:window-height="816"
     inkscape:window-x="0"
     inkscape:window-y="0"
     inkscape:window-maximized="1"
     inkscape:current-layer="svg2" />
  <g
     fill="#0096d6"
     id="g2"
     transform="matrix(1.4867889,0,0,1.4867889,-31.479007,-24.620381)">
    <path
       d="M 99.8,49.9 C 99.8,22.34 77.46,0 49.9,0 49.1486,0 48.401,0.019 47.657,0.0531 L 37.4502,28.1066 h 8.89 c 5.2886,0 8.1387,4.0721 6.3284,9.0456 L 40.0784,71.7522 29.5071,71.7503 43.0177,34.6645 H 35.0688 L 21.5581,71.7503 H 10.9831 L 26.8694,28.1066 h 0.0019 l 9.556,-26.264 C 15.4139,7.721 0,27.0097 0,49.9 0,73.4695 16.3436,93.2212 38.3154,98.4451 l 9.2601,-25.448 h 0.0076 L 63.9191,28.1066 H 83.39 c 5.2942,0 8.1425,4.0721 6.3322,9.0456 L 78.6593,67.5416 c -0.8425,2.315 -3.5465,4.2087 -6.0095,4.2087 H 58.6155 L 48.418,99.7773 C 48.9095,99.7905 49.4047,99.8 49.9,99.8 77.46,99.8 99.8,77.4582 99.8,49.9"
       id="path1" />
    <path
       d="m 80.0939,34.638 h -7.945 L 61.0214,65.1677 h 7.9451 L 80.094,34.638"
       id="path2" />
  </g>
</svg>
