<?xml version="1.0" encoding="UTF-8" standalone="no"?>
<!-- Created with Inkscape (http://www.inkscape.org/) -->

<svg
   version="1.1"
   id="svg1"
   width="634.0614"
   height="401.50571"
   viewBox="0 0 634.06143 401.5057"
   sodipodi:docname="Itel.svg"
   inkscape:version="1.4.2 (ebf0e94, 2025-05-08)"
   xml:space="preserve"
   xmlns:inkscape="http://www.inkscape.org/namespaces/inkscape"
   xmlns:sodipodi="http://sodipodi.sourceforge.net/DTD/sodipodi-0.dtd"
   xmlns="http://www.w3.org/2000/svg"
   xmlns:svg="http://www.w3.org/2000/svg"><defs
     id="defs1" /><sodipodi:namedview
     id="namedview1"
     pagecolor="#ffffff"
     bordercolor="#000000"
     borderopacity="0.25"
     inkscape:showpageshadow="2"
     inkscape:pageopacity="0.0"
     inkscape:pagecheckerboard="0"
     inkscape:deskcolor="#d1d1d1"
     inkscape:zoom="0.39496501"
     inkscape:cx="248.12324"
     inkscape:cy="186.09243"
     inkscape:window-width="1600"
     inkscape:window-height="816"
     inkscape:window-x="0"
     inkscape:window-y="0"
     inkscape:window-maximized="1"
     inkscape:current-layer="g1"><inkscape:page
       x="0"
       y="2.9508624e-07"
       inkscape:label="1"
       id="page1"
       width="634.0614"
       height="401.50571"
       margin="498.92969 76 502.79819 74.311203"
       bleed="0" /></sodipodi:namedview><g
     id="g1"
     inkscape:groupmode="layer"
     inkscape:label="1"
     transform="translate(-355.73682,13.094161)"><g
       id="Layer1000"
       transform="matrix(1.3333333,0,0,1.3333333,275.7329,-259.42616)"><g
         id="Layer1001"><path
           d="M 161.7489,483.6127 C 313.518,494.322 431.9425,467.0456 501.5798,402.1948 549.2823,349.4197 544.642,285.1279 500.7986,246.439 442.963,195.4029 352.6883,176.4556 224.5822,188.0306 117.1621,211.8138 51.6557,256.2735 60.8615,337.5916 c 6.158,40.3452 40.4989,77.1672 108.8521,109.737 -2.6549,12.0949 -5.3098,24.1895 -7.9647,36.2841 z"
           style="fill:#e30016;fill-rule:evenodd"
           id="path1" /><g
           id="Layer1002"><path
             d="M 199.948,291.2598 178.7255,398.0682 H 146.8216 L 168.044,291.2598 Z"
             style="fill:#ffffff;fill-rule:evenodd"
             id="path2" /><path
             d="M 208.1639,249.9109 202.5629,278.1 H 170.659 l 5.601,-28.1891 z"
             style="fill:#ffffff;fill-rule:evenodd"
             id="path3" /><path
             d="m 394.6555,350.5331 19.965,-100.4797 h 31.9039 l -19.9649,100.4797 c -1.12,8.282 0.178,16.3009 11.34,19.0276 3.3216,0.8113 6.8388,0 10.2585,0 -1.9343,9.5556 -3.8684,19.1115 -5.8025,28.6673 -3.7134,0 -7.4267,0 -11.1401,0 -29.2635,-1.4978 -40.9244,-17.8395 -36.5599,-47.6949 z"
             style="fill:#ffffff;fill-rule:evenodd"
             id="path4" /><path
             d="m 201.6961,350.5331 19.965,-100.4797 h 31.9039 l -5.7614,28.9962 h 25.3967 l -5.601,28.1891 H 242.2026 L 233.6,350.5331 c -1.1199,8.282 0.178,16.3009 11.34,19.0276 3.3217,0.8113 6.8389,0 10.2586,0 -1.9343,9.5556 -3.8684,19.1115 -5.8025,28.6673 -3.7134,0 -7.4268,0 -11.1402,0 -29.2634,-1.4978 -40.9243,-17.8395 -36.5598,-47.6949 z"
             style="fill:#ffffff;fill-rule:evenodd"
             id="path5" /><path
             d="m 295.5407,349.9089 c 29.0843,0 58.1687,0 87.253,0 9.2316,-35.3366 -1.7374,-54.0399 -20.9191,-65.3828 -55.3326,-24.021 -112.8603,23.2674 -89.7296,86.7019 14.7152,24.4951 38.5806,32.9412 73.4901,22.0196 16.2275,-6.1577 27.0182,-17.0725 33.3046,-31.9284 -11.1949,0 -22.3897,0 -33.5843,0 -6.4684,7.6281 -13.8878,12.045 -22.8408,11.2851 -17.954,-0.4683 -26.2615,-9.0942 -26.9739,-22.6954 z m 4.3603,-24.3039 c 18.6772,0 37.3547,0 56.0321,0 -1.3439,-16.8021 -10.4567,-23.9531 -25.3528,-22.7787 -19.3558,1.5262 -26.6765,11.2967 -30.6793,22.7787 z"
             style="fill:#ffffff;fill-rule:evenodd"
             id="path6" /></g></g></g></g></svg>
